<svg width="569" height="150" viewBox="0 0 569 150" fill="none" xmlns="http://www.w3.org/2000/svg">
<g clip-path="url(#clip0_7_50)">
<path d="M62.6761 0.0541992H0V149.946L62.6761 0.0541992Z" fill="#FA0C00"/>
<path d="M106.774 0.0540771H169.368V149.946L106.774 0.0540771Z" fill="#FA0C00"/>
<path d="M84.725 55.299L124.617 149.946H98.4443L86.5215 119.812H57.3271L84.725 55.299Z" fill="#FA0C00"/>
<path d="M271.62 95.3757L279.01 116.567C279.255 117.098 279.622 117.343 280.276 117.343H294.485C295.261 117.343 295.383 116.975 295.261 116.2L265.903 34.6596C265.781 34.0063 265.658 33.8838 265.005 33.8838H247.366C246.876 33.8838 246.59 34.2513 246.59 34.7821C246.345 39.0694 245.977 40.376 245.447 41.6417L219.274 116.077C219.151 116.976 219.437 117.343 220.172 117.343H232.871C233.646 117.343 234.014 117.098 234.3 116.322L241.282 95.3757H271.62ZM245.324 81.5339C249.162 69.9378 254.225 55.0752 256.267 46.5823H256.389C258.921 55.4836 264.882 73.1227 267.577 81.5339H245.324Z" fill="#FA0C00"/>
<path d="M333.002 118.609C340.638 118.609 348.763 117.22 357.011 113.668C357.664 113.423 357.787 113.137 357.787 112.525C357.542 110.238 357.256 106.931 357.256 104.399V27.6366C357.256 27.1466 357.256 26.9016 356.644 26.9016H342.802C342.271 26.9016 342.026 27.1466 342.026 27.7999V53.8095C339.862 53.5645 338.351 53.442 336.555 53.442C314.22 53.442 300.5 68.1821 300.5 86.597C300.5 107.952 314.587 118.609 333.002 118.609ZM342.026 104.399C339.739 105.134 337.208 105.42 334.635 105.42C324.509 105.42 316.221 99.7038 316.221 85.8212C316.221 73.531 324.754 66.263 336.065 66.263C338.351 66.263 340.352 66.508 342.026 67.1613V104.399Z" fill="#FA0C00"/>
<path d="M401.945 53.442C382.877 53.442 371.077 68.0596 371.077 86.1071C371.077 102.235 380.468 118.609 401.659 118.609C419.584 118.609 432.16 105.42 432.16 85.6987C432.16 68.3046 421.503 53.442 401.945 53.442ZM401.169 66.263C411.949 66.263 416.522 75.5318 416.522 86.1071C416.522 99.1731 409.785 105.665 401.945 105.665C392.268 105.665 386.552 97.5398 386.552 85.8212C386.552 73.776 392.636 66.263 401.169 66.263Z" fill="#FA0C00"/>
<path d="M446.471 26.9016C445.94 26.9016 445.573 27.1466 445.573 27.7999V114.689C445.573 115.056 445.94 115.71 446.471 115.832C452.555 117.71 458.924 118.609 465.498 118.609C484.321 118.609 502.614 106.931 502.614 83.4121C502.614 66.3855 490.936 53.442 472.644 53.442C468.438 53.442 464.518 54.0953 461.088 55.2385L460.925 27.9224C460.925 27.0241 460.68 26.9016 459.782 26.9016H446.471ZM486.975 84.9637C486.975 99.0505 477.339 105.665 466.927 105.665C464.763 105.665 462.844 105.543 461.088 105.012V67.9371C463.089 67.1613 465.498 66.508 469.949 66.508C479.993 66.508 486.975 72.8777 486.975 84.9637Z" fill="#FA0C00"/>
<path d="M554.271 89.5369C560.478 89.5369 565.581 89.4144 567.337 89.0061C567.99 88.8836 568.235 88.6386 568.358 88.1078C568.726 86.7195 568.889 83.8205 568.889 80.2682C568.889 68.1821 561.621 53.442 542.838 53.442C523.648 53.442 512.991 69.0804 512.991 86.7195C512.991 102.358 521.239 118.609 544.349 118.609C553.005 118.609 558.599 117.221 563.417 114.934C563.907 114.689 564.152 114.281 564.152 113.546V102.97C564.152 102.358 563.785 102.235 563.417 102.48C558.599 104.522 553.373 105.543 547.657 105.543C534.713 105.543 528.833 98.3973 528.466 89.5369H554.271ZM528.466 78.5941C529.487 72.3877 533.406 65.6506 542.185 65.6506C551.862 65.6506 554.394 73.776 554.394 77.4508C554.394 77.5733 554.394 78.1041 554.394 78.4716C553.863 78.5941 552.23 78.5941 547.411 78.5941H528.466Z" fill="#FA0C00"/>
</g>
<defs>
<clipPath id="clip0_7_50">
<rect width="568.889" height="150" fill="white"/>
</clipPath>
</defs>
</svg>
