<svg width="471" height="150" viewBox="0 0 471 150" fill="none" xmlns="http://www.w3.org/2000/svg">
<g clip-path="url(#clip0_7_1005)">
<path d="M467.497 102.526C466.696 102.526 465.967 103.04 465.591 104.116C460.765 117.797 454.246 125.935 448.878 125.935C445.795 125.935 444.547 122.521 444.547 117.166C444.547 103.765 452.622 75.3508 456.692 62.3947C457.163 60.8278 457.47 59.4247 457.47 58.2321C457.47 54.4668 455.398 52.6193 450.268 52.6193C444.736 52.6193 438.78 54.7708 432.99 64.8503C430.989 55.9636 424.941 52.0814 416.49 52.0814C406.722 52.0814 397.283 58.3255 389.515 68.4519C381.748 78.5781 372.614 81.8991 365.742 80.262C370.685 68.2415 372.519 59.2611 372.519 52.5958C372.519 42.1422 367.318 35.8278 358.915 35.8278C346.133 35.8278 338.765 47.9421 338.765 60.6875C338.765 70.5332 343.262 80.6594 353.148 85.5706C344.862 104.186 332.762 121.024 328.172 121.024C322.242 121.024 320.499 92.1891 320.829 71.5622C321.042 59.7286 322.029 59.1208 322.029 55.5425C322.029 53.4845 320.688 52.0814 315.298 52.0814C302.728 52.0814 298.844 62.652 298.255 74.7895C298.066 79.4021 297.339 83.9772 296.091 88.4239C290.841 107.039 280.013 121.165 272.952 121.165C269.679 121.165 268.786 117.914 268.786 113.658C268.786 100.257 276.342 83.5126 276.342 69.2236C276.342 58.7232 271.705 52.0814 262.971 52.0814C252.685 52.0814 239.079 64.2422 226.205 87.0205C230.442 69.5744 232.184 52.6895 219.637 52.6895C216.916 52.7298 214.243 53.4196 211.846 54.7006C211.041 55.0745 210.368 55.6805 209.915 56.4397C209.462 57.1987 209.249 58.0758 209.304 58.9569C210.504 77.5258 194.239 125.094 178.822 125.094C176.021 125.094 174.655 122.077 174.655 117.212C174.655 103.789 182.706 75.4442 186.754 62.4648C187.272 60.7812 187.554 59.3312 187.554 58.0682C187.554 54.5135 185.342 52.6895 180.328 52.6895C174.82 52.6895 168.841 54.7708 163.074 64.8503C161.05 55.9636 155.001 52.0814 146.55 52.0814C132.686 52.0814 117.198 66.651 110.395 85.6408C101.286 110.992 82.926 135.477 58.2106 135.477C35.7785 135.477 23.9386 116.932 23.9386 87.6286C23.9386 45.3228 55.1977 10.7577 78.3831 10.7577C89.4697 10.7577 94.7658 17.7736 94.7658 28.5314C94.7658 41.5576 87.4454 47.6146 87.4454 52.5725C87.4454 54.0925 88.7165 55.5893 91.2351 55.5893C101.31 55.5893 113.173 43.8261 113.173 27.783C113.173 11.7399 100.062 0 76.8766 0C38.556 0 0 38.3068 0 87.3949C0 126.45 19.3957 150 52.938 150C75.8174 150 95.8015 132.32 106.582 111.693C107.806 128.789 115.621 137.722 127.531 137.722C138.124 137.722 146.692 131.455 153.235 120.44C155.754 131.969 162.439 137.605 171.125 137.605C181.081 137.605 189.414 131.338 197.346 119.691C197.229 128.835 199.324 137.442 207.303 137.442C211.069 137.442 215.565 136.576 216.366 133.302C224.769 98.784 245.529 70.6034 251.885 70.6034C253.768 70.6034 254.287 72.4041 254.287 74.5322C254.287 83.9102 247.625 103.134 247.625 115.412C247.625 128.672 253.297 137.442 265.02 137.442C278.012 137.442 291.217 121.632 300.021 98.5267C302.776 120.112 308.73 137.535 318.051 137.535C329.492 137.535 349.805 113.611 362.116 88.2835C366.942 88.8914 374.19 88.7278 381.159 83.8401C378.192 91.3004 376.452 99.4622 376.452 107.624C376.452 131.127 387.75 137.722 397.47 137.722C408.039 137.722 416.608 131.455 423.175 120.44C425.34 130.379 430.872 137.582 441.039 137.582C456.953 137.582 470.769 121.422 470.769 108.162C470.769 104.654 469.262 102.526 467.497 102.526ZM137.229 124.696C130.803 124.696 128.285 118.265 128.285 108.676C128.285 92.0252 139.748 64.2189 151.87 64.2189C157.166 64.2189 159.167 70.4162 159.167 77.9935C159.167 94.9018 148.269 124.696 137.229 124.696ZM357.337 75C353.502 70.4631 352.112 64.2891 352.112 58.7933C352.112 52.0112 354.607 46.2815 357.595 46.2815C360.586 46.2815 361.505 49.2048 361.505 53.274C361.505 60.0796 359.056 70.0186 357.337 75ZM407.169 124.696C400.742 124.696 398.225 117.306 398.225 108.676C398.225 92.61 409.687 64.2189 421.904 64.2189C427.2 64.2189 429.083 70.3696 429.083 77.9935C429.083 94.9018 418.373 124.696 407.169 124.696Z" fill="url(#paint0_linear_7_1005)"/>
</g>
<defs>
<linearGradient id="paint0_linear_7_1005" x1="45" y1="1.75717e-05" x2="470.769" y2="121.154" gradientUnits="userSpaceOnUse">
<stop stop-color="#00BBC6"/>
<stop offset="0.489354" stop-color="#355AE4"/>
<stop offset="1" stop-color="#7225E3"/>
</linearGradient>
<clipPath id="clip0_7_1005">
<rect width="470.769" height="150" fill="white"/>
</clipPath>
</defs>
</svg>
