<svg width="554" height="150" viewBox="0 0 554 150" fill="none" xmlns="http://www.w3.org/2000/svg">
<path d="M106.401 63.9427H59.9777C58.7802 63.9427 57.8088 64.9146 57.8088 66.113V88.8091C57.8088 90.0065 58.7802 90.9816 59.9777 90.9816H78.0874V119.18C78.0874 119.18 74.0204 120.566 62.7794 120.566C49.5162 120.566 30.9887 115.72 30.9887 74.978C30.9887 34.2274 50.2809 28.8658 68.3938 28.8658C84.0721 28.8658 90.8271 31.6265 95.1248 32.9563C96.4749 33.3704 97.7245 32.0256 97.7245 30.827L102.903 8.89762C102.903 8.33742 102.713 7.66219 102.074 7.20322C100.328 5.95859 89.6798 0 62.7794 0C31.7885 0 0 13.1848 0 76.5668C0 139.951 36.3952 149.396 67.0652 149.396C92.4589 149.396 107.865 138.544 107.865 138.544C108.5 138.193 108.568 137.306 108.568 136.899V66.113C108.568 64.9146 107.598 63.9427 106.401 63.9427Z" fill="#161312"/>
<path d="M345.639 7.59423C345.639 6.38641 344.682 5.41211 343.484 5.41211H317.346C316.151 5.41211 315.18 6.38641 315.18 7.59423C315.18 7.59998 315.188 58.1071 315.188 58.1071H274.445V7.59423C274.445 6.38641 273.483 5.41211 272.288 5.41211H246.151C244.961 5.41211 243.991 6.38641 243.991 7.59423V144.369C243.991 145.575 244.961 146.558 246.151 146.558H272.288C273.483 146.558 274.445 145.575 274.445 144.369V85.8658H315.188C315.188 85.8658 315.116 144.364 315.116 144.369C315.116 145.575 316.086 146.558 317.281 146.558H343.482C344.679 146.558 345.636 145.575 345.639 144.369V7.59423Z" fill="#161312"/>
<path d="M155.724 25.5426C155.724 16.1308 148.178 8.5249 138.869 8.5249C129.569 8.5249 122.016 16.1308 122.016 25.5426C122.016 34.9445 129.569 42.5708 138.869 42.5708C148.178 42.5708 155.724 34.9445 155.724 25.5426Z" fill="#161312"/>
<path d="M153.855 115.517C153.855 112.013 153.855 52.3817 153.855 52.3817C153.855 51.1828 152.887 50.2029 151.692 50.2029H125.636C124.441 50.2029 123.372 51.4357 123.372 52.6342C123.372 52.6342 123.372 128.607 123.372 143.089C123.372 145.748 125.028 146.537 127.172 146.537C127.172 146.537 138.293 146.537 150.648 146.537C153.223 146.537 153.855 145.274 153.855 143.047C153.855 138.198 153.855 119.204 153.855 115.517Z" fill="#161312"/>
<path d="M444.975 50.4087H419.037C417.848 50.4087 416.879 51.389 416.879 52.5955V119.66C416.879 119.66 410.29 124.482 400.937 124.482C391.586 124.482 389.103 120.238 389.103 111.081C389.103 101.912 389.103 52.5955 389.103 52.5955C389.103 51.389 388.136 50.4087 386.946 50.4087H360.621C359.433 50.4087 358.459 51.389 358.459 52.5955C358.459 52.5955 358.459 88.3104 358.459 115.509C358.459 142.71 373.62 149.364 394.475 149.364C411.583 149.364 425.378 139.912 425.378 139.912C425.378 139.912 426.035 144.893 426.331 145.483C426.629 146.072 427.403 146.668 428.24 146.668L444.987 146.594C446.175 146.594 447.148 145.611 447.148 144.41L447.141 52.5955C447.141 51.389 446.171 50.4087 444.975 50.4087Z" fill="#161312"/>
<path d="M505.637 124.399C496.64 124.124 490.538 120.042 490.538 120.042V76.7285C490.538 76.7285 496.559 73.0385 503.945 72.379C513.285 71.5422 522.285 74.3636 522.285 96.645C522.285 120.142 518.223 124.778 505.637 124.399ZM515.867 47.3359C501.135 47.3359 491.116 53.9088 491.116 53.9088V7.59423C491.116 6.38641 490.15 5.41211 488.959 5.41211H462.746C461.555 5.41211 460.586 6.38641 460.586 7.59423V144.369C460.586 145.575 461.555 146.558 462.75 146.558C462.752 146.558 480.93 146.558 480.936 146.558C481.755 146.558 482.375 146.136 482.833 145.397C483.285 144.662 483.938 139.09 483.938 139.09C483.938 139.09 494.656 149.248 514.946 149.248C538.767 149.248 552.428 137.164 552.428 95.0051C552.428 52.8453 530.61 47.3359 515.867 47.3359Z" fill="#161312"/>
<path d="M228.977 50.1905H209.371C209.371 50.1905 209.341 24.2933 209.341 24.2875C209.341 23.3074 208.836 22.8174 207.703 22.8174H180.984C179.945 22.8174 179.387 23.2741 179.387 24.2726V51.0398C179.387 51.0398 165.998 54.2724 165.092 54.5335C164.19 54.795 163.527 55.6262 163.527 56.6184V73.4389C163.527 74.6485 164.493 75.6241 165.688 75.6241H179.387C179.387 75.6241 179.387 93.2171 179.387 116.09C179.387 146.146 200.47 149.099 214.697 149.099C221.197 149.099 228.973 147.011 230.257 146.537C231.033 146.252 231.484 145.448 231.484 144.576L231.506 126.073C231.506 124.866 230.487 123.889 229.339 123.889C228.197 123.889 225.273 124.354 222.264 124.354C212.634 124.354 209.371 119.876 209.371 114.08C209.371 108.288 209.37 75.6241 209.37 75.6241H228.977C230.173 75.6241 231.14 74.6485 231.14 73.4389V52.37C231.14 51.1624 230.173 50.1905 228.977 50.1905Z" fill="#161312"/>
</svg>
