<svg width="1098" height="150" viewBox="0 0 1098 150" fill="none" xmlns="http://www.w3.org/2000/svg">
<path d="M661.034 12.3062C643.461 12.3062 634.92 22.6618 634.92 37.9153V46.8732H621.621V59.9272H634.972V128.94H648.755V59.9272H669.927V46.8732H648.755L648.628 38.3261C648.628 30.9414 652.992 25.8476 661.682 25.8476C664.658 25.8357 667.624 26.116 670.543 26.6715V13.6128C667.45 12.7306 664.248 12.2884 661.034 12.3062ZM248.757 15.351C246.441 15.4354 244.23 16.3898 242.581 18.0454C240.689 19.9302 239.715 22.551 239.9 25.214C239.9 28.7356 241.774 31.9926 244.826 33.7496C247.872 35.5141 251.63 35.5141 254.676 33.7496C257.722 31.9926 259.605 28.7356 259.598 25.214C259.789 22.551 258.814 19.9302 256.923 18.0454C255.037 16.1532 252.416 15.178 249.752 15.3696C249.419 15.3459 249.087 15.3388 248.757 15.3507V15.351ZM484.173 19.4727C459.046 19.4727 446.251 31.8939 446.251 48.6787C446.251 66.4022 457.126 74.7731 481.377 80.6859C501.891 85.611 507.802 90.6822 507.802 100.215C507.802 109.746 501.664 116.146 485.419 116.146C471.152 116.146 455.726 112.375 445.712 107.119V122.21C454.085 126.48 463.766 130.581 484.619 130.581C511.382 130.581 522.541 117.933 522.65 99.2282C522.65 79.7923 509.84 72.4809 487.028 66.7315C468.003 61.9802 461.099 57.5382 461.099 48.6787C461.099 38.833 469.475 33.9074 483.591 33.9074C495.311 33.6222 506.898 36.4525 517.167 42.1157V27.3399C509.78 23.2034 499.769 19.4727 484.173 19.4727ZM208.065 21.1296L208.102 97.0979C208.102 107.862 203.79 115.322 191.316 115.322C186.094 115.363 180.919 114.412 176.058 112.526V126.884C181.759 128.829 187.754 129.774 193.776 129.688C214.146 129.688 222.839 115.977 222.839 96.1115V21.1296H208.065ZM690.878 29.4679V46.9428H677.573V60.0038H690.93V103.313C690.93 118.589 699.477 128.922 717.045 128.922C720.265 128.94 723.465 128.497 726.557 127.616V114C723.65 114.678 720.681 115.067 717.698 115.155C709.003 115.155 704.732 110.234 704.657 103.011V59.9272H726.483V46.8732H704.657V29.4679H690.878ZM1057.46 45.1744C1032.51 45.1744 1018.72 62.8909 1018.72 87.6827C1018.72 112.862 1032.17 130.581 1062.88 130.581C1071.25 130.581 1081.61 129.311 1088.34 125.68V112.619C1080.33 115.548 1071.89 117.052 1063.38 117.058C1044.01 117.058 1034.99 108.03 1033.01 94.0764H1092.9V87.6827C1092.9 62.7409 1082.74 45.1744 1057.46 45.1744ZM360.86 45.2326C337.88 45.2326 326.393 64.7603 326.393 87.9035C326.393 112.039 337.398 130.581 359.22 130.581C371.85 130.581 381.697 125.007 386.959 114.169L386.975 128.94H401.098V46.8734H386.975V61.3081C382.033 50.6381 372.837 45.2326 360.861 45.2326H360.86ZM574.078 45.2326C549.455 45.2326 535.018 63.1198 535.018 87.7363C535.018 112.359 549.622 130.639 574.078 130.639C598.532 130.639 612.814 112.359 612.814 87.7363C612.814 63.1198 598.694 45.2326 574.078 45.2326ZM908.751 45.2326C885.769 45.2326 874.283 64.7603 874.283 87.9035C874.283 112.039 885.289 130.581 907.11 130.581C919.739 130.581 929.585 125.007 934.847 114.169L934.864 128.94H948.988V46.8734H934.864V61.3081C929.921 50.6381 920.726 45.2326 908.751 45.2326ZM317.907 45.6201C303.788 45.6012 296.217 52.2296 291.757 61.3081V46.8734H277.972V128.996H291.757V80.5004C291.757 63.1185 302.762 57.6355 320.817 59.498V45.713C319.816 45.6512 318.847 45.6215 317.907 45.6204V45.6201ZM1010.23 45.6201C996.118 45.6012 988.548 52.2296 984.088 61.3081V46.8734H970.301V128.996H984.088V80.5004C984.088 63.1185 995.093 57.6355 1013.15 59.498V45.713C1012.15 45.6512 1011.18 45.6215 1010.23 45.6204V45.6201ZM730.51 46.8734L760.707 128.94H778.761L793.068 89.2332L800.532 63.9538L807.991 89.2332L822.115 128.94H840.167L870.366 46.8734H854.772L831.117 116.46L807.15 46.8734H793.683L769.734 116.46L746.104 46.8734H730.51ZM242.535 46.8924V128.957H256.649V46.8924H242.535ZM1056.77 58.1177C1070.87 58.1177 1077.77 66.8255 1078.6 82.0835H1032.85V81.9933C1034.32 67.7616 1041.87 58.0436 1056.77 58.1178V58.1177ZM364.574 58.2871C376.625 58.2871 386.959 66.328 386.959 84.5505V91.1877C386.959 109.402 375.644 117.446 363.01 117.453C348.382 117.453 340.514 107.6 340.439 87.8274C340.439 68.7865 348.643 58.2871 364.574 58.2871ZM912.464 58.2871C924.514 58.2871 934.847 66.328 934.847 84.5505V91.1877C934.847 109.4 923.535 117.444 910.897 117.453C896.272 117.453 888.347 107.601 888.347 87.9039C888.347 68.863 896.608 58.4371 912.464 58.2871ZM574.078 58.4356C591.478 58.4356 599.03 72.1476 599.03 87.7368C599.03 103.332 591.628 117.453 574.078 117.453C556.528 117.453 548.803 103.332 548.803 87.7368H548.872C548.872 72.1476 556.672 58.4356 574.078 58.4356Z" fill="#253858"/>
<path d="M139.275 71.0441L78.4661 10.235L72.5726 4.34587L5.87452 71.0441C3.69417 73.2304 3.69417 76.7697 5.87452 78.9515L47.6946 120.77L72.5726 145.654L139.275 78.9515C141.458 76.7697 141.458 73.2304 139.275 71.0441ZM72.5726 95.8864L51.6856 75.0009L72.5726 54.1077L93.4641 75.0009L72.5726 95.8864Z" fill="#2684FF"/>
<path d="M72.5724 54.1076C58.8978 40.427 58.8279 18.27 72.4269 4.50911L26.7095 50.2089L51.5933 75.0928L72.5724 54.1076Z" fill="url(#paint0_linear_7_845)"/>
<path d="M93.5223 74.9414L72.5728 95.8864C79.1747 102.482 82.8878 111.435 82.8878 120.77C82.8878 130.105 79.1747 139.052 72.5728 145.654L118.401 99.8253L93.5223 74.9414Z" fill="url(#paint1_linear_7_845)"/>
<defs>
<linearGradient id="paint0_linear_7_845" x1="63.5941" y1="38.2271" x2="39.6721" y2="62.1431" gradientUnits="userSpaceOnUse">
<stop stop-color="#0052CC"/>
<stop offset="1" stop-color="#2684FF"/>
</linearGradient>
<linearGradient id="paint1_linear_7_845" x1="81.8094" y1="111.54" x2="105.684" y2="87.666" gradientUnits="userSpaceOnUse">
<stop stop-color="#0052CC"/>
<stop offset="1" stop-color="#2684FF"/>
</linearGradient>
</defs>
</svg>
