<svg width="500" height="150" viewBox="0 0 500 150" fill="none" xmlns="http://www.w3.org/2000/svg">
<path d="M150.05 67.15H104.34L143.925 44.3L136.075 30.7L96.485 53.55L119.335 13.975L105.735 6.125L82.88 45.69V0H67.17V45.695L44.315 6.125L30.71 13.975L53.56 53.54L13.98 30.7L6.125 44.3L45.71 67.15H0V82.855H45.705L6.125 105.705L13.975 119.305L53.565 96.455L30.71 136.03L44.31 143.88L67.17 104.31V150H82.88V103.33L106.155 143.63L118.91 136.27L95.63 95.96L136.065 119.3L143.92 105.7L104.34 82.85H150.045V67.15H150.05ZM75.025 96.35C72.2205 96.3505 69.4435 95.7985 66.8525 94.7255C64.2615 93.6525 61.907 92.08 59.924 90.097C57.941 88.1145 56.3675 85.7605 55.294 83.1695C54.2205 80.5785 53.668 77.802 53.6675 74.9975C53.667 72.193 54.219 69.416 55.292 66.825C56.365 64.234 57.9375 61.8795 59.9205 59.8965C61.903 57.9135 64.257 56.34 66.848 55.2665C69.439 54.193 72.2155 53.6405 75.02 53.64C80.6835 53.6395 86.1155 55.8885 90.121 59.893C94.1265 63.8975 96.377 69.329 96.3775 74.9925C96.378 80.656 94.129 86.088 90.1245 90.0935C86.12 94.099 80.6885 96.3495 75.025 96.35Z" fill="#5753F3"/>
<path d="M190.544 129.866V20.1355H210.684V129.866H190.544ZM383.709 55.2955H402.939V64.3955C407.029 57.1205 416.574 53.1755 424.749 53.1755C434.899 53.1755 443.074 57.5755 446.859 65.6005C452.759 56.5005 460.639 53.1755 470.484 53.1755C484.264 53.1755 497.434 61.5105 497.434 81.5155V129.866H477.904V85.6105C477.904 77.5755 473.964 71.5105 464.724 71.5105C456.089 71.5105 450.939 78.1855 450.939 86.2205V129.87H430.959V85.6105C430.959 77.5755 426.869 71.5105 417.779 71.5105C408.994 71.5105 403.844 78.0355 403.844 86.2205V129.87H383.709V55.2955ZM256.199 132.025C233.509 132.025 217.079 115.19 217.079 92.5805C217.079 70.3305 233.459 53.1005 256.199 53.1005C279.049 53.1005 295.319 70.4905 295.319 92.5805C295.319 115.031 278.879 132.025 256.199 132.025ZM256.199 71.3505C250.571 71.3585 245.176 73.5985 241.198 77.58C237.22 81.561 234.983 86.9575 234.979 92.5855C234.983 98.2135 237.22 103.61 241.198 107.591C245.176 111.573 250.571 113.812 256.199 113.82C261.826 113.811 267.22 111.571 271.197 107.59C275.174 103.609 277.41 98.2125 277.414 92.5855C277.41 86.9585 275.174 81.5625 271.197 77.5815C267.22 73.6005 261.826 71.36 256.199 71.3505ZM338.334 132.025C315.644 132.025 299.214 115.19 299.214 92.5805C299.214 70.3305 315.594 53.1005 338.334 53.1005C361.184 53.1005 377.454 70.4905 377.454 92.5805C377.454 115.031 361.004 132.025 338.334 132.025ZM338.334 71.0955C332.642 71.105 327.185 73.3715 323.161 77.398C319.137 81.4245 316.874 86.883 316.869 92.5755C316.874 98.268 319.137 103.727 323.161 107.753C327.185 111.78 332.642 114.046 338.334 114.055C344.027 114.046 349.483 111.78 353.507 107.753C357.531 103.727 359.794 98.268 359.799 92.5755C359.794 86.883 357.531 81.4245 353.507 77.398C349.483 73.3715 344.027 71.105 338.334 71.0955Z" fill="#1E1E1E"/>
</svg>
