<svg width="484" height="150" viewBox="0 0 484 150" fill="none" xmlns="http://www.w3.org/2000/svg">
<g clip-path="url(#clip0_6_125)">
<path d="M125.806 0H24.1936C10.8318 0 0 10.8318 0 24.1936V125.806C0 139.169 10.8318 150 24.1936 150H125.806C139.169 150 150 139.169 150 125.806V24.1936C150 10.8318 139.169 0 125.806 0Z" fill="#FFD02F"/>
<path fill-rule="evenodd" clip-rule="evenodd" d="M101.613 24.1935H87.0967L99.1935 45.9677L72.5806 24.1935H58.0645L71.3709 50.8064L43.5484 24.1935H29.0322L43.5484 58.0645L29.0322 125.806H43.5484L71.3709 53.2258L58.0645 125.806H72.5806L99.1935 48.3871L87.0967 125.806H101.613L128.226 41.129L101.613 24.1935Z" fill="#050038"/>
<path fill-rule="evenodd" clip-rule="evenodd" d="M445.161 33.871C469.355 33.871 483.871 51.9308 483.871 75C483.871 97.9839 469.355 116.129 445.161 116.129C420.968 116.129 406.452 98.0691 406.452 75C406.452 51.9308 420.968 33.871 445.161 33.871ZM336.29 38.7097V113.71H319.355V77.4193V59.2742V41.129L336.29 38.7097ZM399.193 36.2903V53.2258L389.516 54.4355C381.048 55.6451 375 60.4839 375 70.1127V113.71H358.064V70.1127C358.064 49.4033 370.161 39.9193 389.516 37.5L399.193 36.2903ZM229.839 36.2903C237.097 36.2903 244.602 39.2897 249.193 45.9677C253.802 39.8864 261.29 36.2903 270.968 36.2903C283.064 36.2903 297.581 43.5484 297.581 67.7419V113.71H280.645V67.7419C280.645 59.2742 275.371 53.2258 267.339 53.2258C259.306 53.2258 254.032 59.2742 254.032 67.7419V113.71H237.097V67.7419C237.097 59.2742 231.821 53.2258 223.79 53.2258C215.615 53.2258 210.484 59.2742 210.484 67.7419V113.71H193.548V67.7419V41.129L210.484 38.7097V45.9677C215.216 40.1498 220.161 36.2903 229.839 36.2903ZM445.161 50.8064C430.645 50.8064 423.387 61.6406 423.387 75C423.387 88.3595 430.645 99.1935 445.161 99.1935C459.677 99.1935 466.935 88.3064 466.935 75C466.935 61.6572 459.677 50.8064 445.161 50.8064ZM327.823 7.25806C333.871 7.25806 338.71 10.8871 338.71 18.1452C338.71 25.4032 333.871 29.0322 327.823 29.0322C321.774 29.0322 316.935 25.4032 316.935 18.1452C316.935 10.8871 321.774 7.25806 327.823 7.25806Z" fill="#050038"/>
</g>
<defs>
<clipPath id="clip0_6_125">
<rect width="483.871" height="150" fill="white"/>
</clipPath>
</defs>
</svg>
