<svg width="435" height="150" viewBox="0 0 435 150" fill="none" xmlns="http://www.w3.org/2000/svg">
<g clip-path="url(#clip0_7_719)">
<path d="M9.025 6.47004L92.025 0.340029C102.22 -0.534971 104.84 0.0550295 111.25 4.71503L137.745 23.38C142.115 26.59 143.57 27.465 143.57 30.96V133.325C143.57 139.74 141.24 143.535 133.085 144.115L36.7 149.95C30.58 150.24 27.665 149.365 24.46 145.28L4.95 119.91C1.45 115.24 0 111.745 0 107.66V16.67C0 11.425 2.33 7.05004 9.025 6.47004Z" fill="white"/>
<path fill-rule="evenodd" clip-rule="evenodd" d="M92.025 0.340029L9.025 6.47004C2.33 7.05004 0 11.425 0 16.67V107.66C0 111.745 1.45 115.24 4.95 119.91L24.46 145.28C27.665 149.365 30.58 150.24 36.7 149.95L133.085 144.115C141.235 143.535 143.57 139.74 143.57 133.325V30.96C143.57 27.645 142.26 26.69 138.405 23.86C138.183 23.7002 137.961 23.5402 137.74 23.38L111.25 4.71503C104.84 0.0550295 102.22 -0.534971 92.025 0.340029ZM38.88 29.285C31.01 29.815 29.225 29.935 24.755 26.3L13.39 17.26C12.235 16.09 12.815 14.63 15.725 14.34L95.515 8.51004C102.215 7.92504 105.705 10.26 108.325 12.3L122.01 22.215C122.595 22.51 124.05 24.255 122.3 24.255L39.9 29.215L38.88 29.285ZM29.705 132.45V45.55C29.705 41.755 30.87 40.005 34.36 39.71L129 34.17C132.21 33.88 133.66 35.92 133.66 39.71V126.03C133.66 129.825 133.075 133.035 127.835 133.325L37.27 138.575C32.03 138.865 29.705 137.12 29.705 132.45ZM119.105 50.2102C119.685 52.8352 119.105 55.4602 116.48 55.7602L112.115 56.6252V120.785C108.325 122.825 104.835 123.99 101.92 123.99C97.26 123.99 96.095 122.53 92.605 118.16L64.06 73.2502V116.7L73.09 118.745C73.09 118.745 73.09 123.995 65.805 123.995L45.72 125.16C45.135 123.99 45.72 121.075 47.755 120.495L53 119.04V61.5902L45.72 61.0002C45.135 58.3752 46.59 54.5852 50.67 54.2902L72.22 52.8402L101.92 98.3302V58.0852L94.35 57.2152C93.765 54.0002 96.095 51.6652 99.005 51.3802L119.105 50.2102Z" fill="black"/>
<path d="M207.171 106.255V66.7053H207.856L236.376 106.255H245.356V48.1355H235.371V87.6453H234.686L206.166 48.1355H197.151V106.25H207.176L207.171 106.255ZM273.576 107.145C286.751 107.145 294.766 98.5253 294.766 84.2253C294.766 69.9653 286.711 61.3053 273.576 61.3053C260.486 61.3053 252.391 70.0053 252.391 84.2253C252.391 98.5253 260.366 107.145 273.576 107.145ZM273.576 98.7653C266.611 98.7653 262.626 93.4503 262.626 84.2253C262.626 75.0403 266.611 69.6853 273.576 69.6853C280.506 69.6853 284.491 75.0403 284.491 84.2253C284.491 93.4503 280.546 98.7653 273.576 98.7653ZM303.891 51.4003V62.4753H296.926V70.4503H303.891V94.4953C303.891 103.035 307.921 106.46 318.031 106.46C319.961 106.46 321.816 106.26 323.266 105.975V98.1603C322.056 98.2803 321.291 98.3603 319.881 98.3603C315.696 98.3603 313.841 96.4303 313.841 92.0803V70.4503H323.266V62.4753H313.841V51.3953H303.891V51.4003ZM329.251 106.255H339.201V62.1903H329.251V106.255ZM334.206 54.9053C337.506 54.9053 340.166 52.2403 340.166 48.9005C340.166 45.5555 337.511 42.8555 334.206 42.8555C330.946 42.8555 328.246 45.5555 328.246 48.9005C328.246 52.2403 330.946 54.9003 334.206 54.9003V54.9053ZM366.496 107.145C379.666 107.145 387.681 98.5253 387.681 84.2253C387.681 69.9653 379.626 61.3053 366.496 61.3053C353.401 61.3053 345.306 70.0053 345.306 84.2253C345.306 98.5253 353.281 107.145 366.496 107.145ZM366.496 98.7653C359.526 98.7653 355.536 93.4503 355.536 84.2253C355.536 75.0403 359.526 69.6853 366.496 69.6853C373.421 69.6853 377.411 75.0403 377.411 84.2253C377.411 93.4503 373.461 98.7653 366.496 98.7653ZM393.626 106.255H403.616V80.6003C403.616 74.1153 407.366 70.0053 413.321 70.0053C419.406 70.0053 422.221 73.3903 422.221 80.1153V106.255H432.216V77.7403C432.216 67.2253 426.856 61.3053 417.031 61.3053C410.461 61.3053 406.031 64.3253 403.936 69.2403H403.251V62.1903H393.626V106.255Z" fill="black"/>
</g>
<defs>
<clipPath id="clip0_7_719">
<rect width="435" height="150" fill="white"/>
</clipPath>
</defs>
</svg>
