<svg width="600" height="150" viewBox="0 0 600 150" fill="none" xmlns="http://www.w3.org/2000/svg">
<g clip-path="url(#clip0_7_438)">
<path d="M189.158 118.693L196.48 101.578C204.498 107.516 214.955 110.659 225.415 110.659C233.085 110.659 237.965 107.691 237.965 103.151C237.79 90.576 191.772 100.356 191.423 68.7408C191.247 52.6735 205.542 40.2735 225.765 40.2735C237.79 40.2735 249.82 43.2435 258.36 50.056L251.517 67.536C243.66 62.4834 233.955 58.961 224.718 58.961C218.442 58.961 214.257 61.9284 214.257 65.7732C214.433 78.1734 260.802 71.361 261.325 101.578C261.325 117.996 247.377 129.523 227.505 129.523C212.865 129.523 199.443 126.031 189.155 118.693H189.158ZM480.728 95.3808C478.879 98.6652 476.19 101.398 472.937 103.301C469.684 105.203 465.984 106.205 462.215 106.206C450.47 106.206 440.95 96.666 440.95 84.8982C440.95 73.131 450.47 63.591 462.215 63.591C465.984 63.591 469.684 64.5942 472.937 66.4962C476.19 68.3982 478.879 71.1318 480.728 74.4162L501.085 63.1158C493.46 49.4885 478.915 40.2735 462.215 40.2735C437.618 40.2735 417.678 60.2508 417.678 84.8982C417.678 109.543 437.618 129.523 462.215 129.523C478.915 129.523 493.46 120.308 501.085 106.681L480.728 95.3808ZM274.535 127.776H299.985V3.12598H274.538L274.535 127.776ZM513.938 3.12598V127.776H539.388V90.4308L569.545 127.776H602.076L563.725 83.4108L599.285 42.0135H568.15L539.388 76.431V3.12598H513.938ZM378.393 42.0185V52.151C374.21 45.1635 363.925 40.2735 353.118 40.2735C330.805 40.2735 313.2 60.0108 313.2 84.8112C313.2 109.611 330.805 129.523 353.118 129.523C363.925 129.523 374.21 124.633 378.393 117.646V127.776H403.842V42.0185H378.393ZM378.393 95.5536C374.733 101.666 367.062 106.204 358.523 106.204C346.775 106.204 337.255 96.666 337.255 84.8982C337.255 73.131 346.775 63.591 358.523 63.591C367.062 63.591 374.733 68.3058 378.393 74.5908V95.5536Z" fill="black"/>
<path d="M54.755 0.371094C46.5075 0.371094 39.8225 7.07107 39.8225 15.3336C39.8206 17.2965 40.2052 19.2406 40.9546 21.0549C41.704 22.8692 42.8033 24.518 44.1899 25.9075C45.5765 27.2969 47.2232 28.3996 49.036 29.1526C50.8487 29.9056 52.7921 30.2941 54.755 30.2961H69.69V15.3336C69.6936 11.369 68.1216 7.56553 65.3208 4.75957C62.52 1.95363 58.7195 0.37507 54.755 0.371094ZM54.755 40.2711H14.9325C6.68502 40.2711 0 46.9711 0 55.2361C0 63.4985 6.68502 70.1987 14.9325 70.1987H54.7575C63.0024 70.1987 69.69 63.4985 69.69 55.2361C69.69 46.9711 63.0024 40.2711 54.755 40.2711Z" fill="#2FBDEE"/>
<path d="M149.335 55.2361C149.335 46.9711 142.647 40.2711 134.4 40.2711C126.152 40.2711 119.468 46.9711 119.468 55.2361V70.1987H134.4C138.365 70.1945 142.165 68.6159 144.966 65.8103C147.767 63.0041 149.338 59.2006 149.335 55.2361ZM109.512 55.2361V15.3336C109.515 11.369 107.944 7.56553 105.143 4.75957C102.342 1.95363 98.542 0.37507 94.5772 0.371094C86.3296 0.371094 79.645 7.07107 79.645 15.3336V55.2336C79.645 63.5009 86.3296 70.2011 94.5772 70.2011C98.542 70.1969 102.342 68.6183 105.143 65.8127C107.944 63.0065 109.515 59.2032 109.512 55.2386" fill="#29AD72"/>
<path d="M94.5772 150.001C98.542 149.998 102.342 148.419 105.143 145.613C107.944 142.807 109.515 139.003 109.512 135.039C109.515 131.074 107.944 127.271 105.143 124.465C102.342 121.659 98.542 120.08 94.5772 120.076H79.645V135.039C79.645 143.302 86.3296 150.001 94.5772 150.001ZM94.5772 110.101H134.402C142.647 110.101 149.335 103.402 149.335 95.1366C149.338 91.1718 147.767 87.3684 144.966 84.5622C142.165 81.7566 138.365 80.178 134.4 80.1738H94.5772C86.3296 80.1738 79.645 86.874 79.645 95.1366C79.6426 97.0992 80.0278 99.0432 80.7772 100.858C81.526 102.672 82.6258 104.321 84.0124 105.71C85.399 107.099 87.0454 108.202 88.8586 108.955C90.6712 109.708 92.6146 110.097 94.5772 110.099" fill="#E9A929"/>
<path d="M7.53459e-06 95.1366C-0.00196328 97.0992 0.382714 99.0432 1.13207 100.858C1.88144 102.672 2.98081 104.321 4.36742 105.71C5.75403 107.099 7.4007 108.202 9.21348 108.955C11.0263 109.708 12.9696 110.097 14.9325 110.099C18.8971 110.095 22.6977 108.516 25.4985 105.71C28.2992 102.904 29.8708 99.1008 29.8675 95.1366V80.1738H14.9325C6.68502 80.1738 7.53459e-06 86.874 7.53459e-06 95.1366ZM39.8225 95.1366V135.037C39.8225 143.302 46.5075 150.001 54.755 150.001C58.7195 149.998 62.52 148.419 65.3208 145.613C68.1216 142.807 69.6936 139.003 69.69 135.039V95.1366C69.6918 93.1734 69.3072 91.2288 68.5578 89.4144C67.8084 87.6 66.7086 85.9512 65.322 84.5616C63.9348 83.172 62.2878 82.0698 60.4746 81.3168C58.6618 80.5638 56.7182 80.1756 54.755 80.1738C46.5075 80.1738 39.8225 86.874 39.8225 95.1366Z" fill="#DC1C50"/>
</g>
<defs>
<clipPath id="clip0_7_438">
<rect width="600" height="150" fill="white"/>
</clipPath>
</defs>
</svg>
