<svg
  xmlns="http://www.w3.org/2000/svg"
  viewBox="0 0 87.29 41.9"
  width="400"
  height="192"
  shape-rendering="geometricPrecision"
>
  <defs>
    <style>
      .d {
        fill: #fff;
      }
    </style>
  </defs>
  <g>
    <path class="d" d="M46.78,26.71c.13.11.27.21.42.31,1.13.78,3.19,1.5,6.2,2.17l3.06.67c1.79.38,3.1.82,3.93,1.32.82.51,1.24,1.23,1.24,2.17,0,1.6-.84,2.69-2.53,3.28-.89.31-2.04.46-3.47.46-2.38,0-4.05-.58-5.03-1.75-.54-.64-.89-1.6-1.08-2.9h-5.64c0,2.94,1.07,5.25,3.2,6.93,2.13,1.68,5.06,2.52,8.78,2.52s6.46-.85,8.46-2.56c1.84-1.57,2.83-3.51,2.97-5.82h0v7.96h6.26v-11.75h11.91v-4.86h-11.91v-6.57h13.75v-5.26h-20v19.37h0c-.11-2.27-.94-4.03-2.51-5.27-1.19-.94-2.92-1.59-4.89-2.05-1.11-.27-4.06-.95-4.96-1.17s-2.75-.64-3.76-1.17-1.38-1.36-1.38-2.27c0-1.18.51-1.96,1.44-2.59s2.27-.89,3.7-.89c3.04,0,5.62,1.1,5.8,4.33h5.68c-.1-3-1.22-5.3-3.35-6.88-2.13-1.58-4.7-2.37-7.72-2.37-3.61,0-6.35.84-8.21,2.51-1.15,1.03-1.94,2.22-2.38,3.58,0,0-.08.24-.14.47s-.1.43-.1.43h0c-.69,3.26-2.79,5.47-6.3,5.47-5.62,0-7.73-4.78-7.73-9.52,0-4.98,2.11-9.76,7.73-9.76,3.11,0,5.82,2.15,6.21,4.98h6.06c-.76-6.57-6.02-10.24-12.27-10.24-8.4,0-13.49,5.98-13.95,13.86V.68h-6.26v17.69c0,4.22-1.43,6.18-5.9,6.18-5.06,0-5.86-3.07-5.86-6.18V.68H0v17.69c0,7.73,4.46,11.43,12.11,11.43s12.15-3.74,12.15-11.43v-2.22c.45,7.67,5.55,13.65,13.95,13.65,3.45,0,6.39-1.11,8.56-3.1h0Z"/>
  </g>
</svg>