<svg width="780" height="150" viewBox="0 0 780 150" fill="none" xmlns="http://www.w3.org/2000/svg">
<g clip-path="url(#clip0_7_813)">
<path d="M522.06 128.98C532.099 128.98 542.139 125.118 549.861 118.168L563.762 132.842C552.951 143.654 538.278 149.833 522.832 149.061C489.625 149.061 467.228 126.663 467.228 96.5418C466.456 67.9653 488.852 44.7952 517.426 44.0229C518.198 44.0229 518.971 44.0229 519.743 44.0229C552.951 44.0229 572.258 69.51 570.713 105.038H491.169C493.486 120.484 507.387 130.524 522.06 128.98ZM546 88.0461C545.228 74.144 533.643 63.3313 519.743 64.1037C505.07 63.3313 492.713 73.3717 491.169 88.0461H546Z" fill="#072F35"/>
<path d="M0 128.209L61.0099 66.4218H1.54456V47.1133H88.8119V67.1941L27.802 128.981H89.5841V148.29H0V128.209Z" fill="#072F35"/>
<path d="M162.179 128.981C172.219 128.981 182.258 125.119 189.981 118.168L203.882 132.842C193.07 144.428 177.624 150.607 162.179 149.833C128.199 149.833 106.575 127.436 106.575 97.3149C105.803 68.7385 128.199 45.5684 156.773 44.796C157.545 44.796 158.318 44.796 159.09 44.796C192.298 44.796 211.604 70.2831 209.288 105.811H131.288C133.604 120.486 147.505 130.526 162.179 128.981ZM186.12 88.0469C185.348 74.1448 173.763 63.3321 159.862 64.1045C145.961 63.3321 133.604 73.3725 131.288 88.0469H186.12Z" fill="#072F35"/>
<path d="M341.347 97.3146C339.802 69.5103 361.427 45.5679 389.228 44.7956C390 44.7956 390.773 44.7956 391.546 44.7956C404.673 44.7956 417.03 50.2019 424.753 60.2423V0H446.377V147.517H424.753V133.614C416.258 143.654 403.901 149.833 390.772 149.833C362.971 149.833 339.802 126.663 340.574 98.8592C341.347 98.0869 341.347 97.3146 341.347 97.3146ZM426.298 97.3146C426.298 79.5508 411.624 65.6487 394.634 65.6487C376.872 65.6487 362.971 80.3231 362.971 97.3146C362.971 115.078 377.644 128.98 394.634 128.98C412.397 128.98 426.298 115.078 426.298 97.3146Z" fill="#072F35"/>
<path d="M583.842 126.662L603.149 115.85C608.554 125.118 618.594 130.524 628.634 130.524C640.991 130.524 647.169 124.346 647.169 117.394C647.169 110.444 635.585 107.354 622.456 105.037C605.466 101.176 587.703 95.7691 587.703 74.916C587.703 58.6969 603.149 44.0225 627.09 44.0225C643.308 43.2502 658.753 50.2012 668.02 63.331L650.258 74.1437C644.852 66.4203 636.357 62.5586 627.862 62.5586C616.278 62.5586 610.872 67.965 610.872 74.916C610.872 81.8671 620.139 84.1841 634.812 87.2734C651.802 91.1351 670.337 96.5414 670.337 117.394C670.337 131.297 657.981 149.832 629.407 149.832C610.1 151.378 592.337 142.109 583.842 126.662Z" fill="#072F35"/>
<path d="M724.396 102.721L707.406 121.257V147.517H685.782V0H707.406V96.5422L752.97 46.3402H779.228L739.841 89.5911L780 147.517H756.059L724.396 102.721Z" fill="#072F35"/>
<path d="M277.248 44.796C251.762 44.796 230.139 61.7874 230.139 88.8192V148.289H251.762V91.9086C250.218 78.7788 259.485 67.1938 272.614 65.6491C274.159 65.6491 275.703 65.6491 277.248 65.6491C293.465 65.6491 301.189 75.6895 301.189 91.9086V148.289H324.356V88.8192C324.356 61.015 302.733 44.796 277.248 44.796Z" fill="#072F35"/>
</g>
<defs>
<clipPath id="clip0_7_813">
<rect width="780" height="150" fill="white"/>
</clipPath>
</defs>
</svg>
