<svg width="668" height="150" viewBox="0 0 668 150" fill="none" xmlns="http://www.w3.org/2000/svg">
<g clip-path="url(#clip0_7_1396)">
<path fill-rule="evenodd" clip-rule="evenodd" d="M543.459 44.9811C546.01 49.3832 546.845 54.3915 547.12 60.0221L547.483 67.5268V120.005L547.853 127.517C548.593 139.786 557.641 148.858 570.005 149.63L577.478 150V67.5268L577.848 60.0221C578.155 54.4545 578.982 49.3517 581.573 44.9181C584.213 40.3707 588.003 36.5978 592.562 33.9783C597.121 31.3587 602.289 29.9848 607.548 29.9944C612.806 30.004 617.969 31.3967 622.519 34.0328C627.068 36.6689 630.845 40.4556 633.468 45.0126C636.019 49.4146 636.815 54.5175 637.122 60.0221L637.492 67.5032V120.005L637.862 127.517C638.634 139.849 647.611 148.921 660.014 149.63L667.487 150V60.0221C667.487 44.1115 661.168 28.8522 649.92 17.5996C638.672 6.34687 623.415 0.0220351 607.505 0.0157708C598.989 0.00679006 590.569 1.81521 582.808 5.32021C575.047 8.82522 568.124 13.9461 562.5 20.3407C556.874 13.9486 549.95 8.82897 542.189 5.32293C534.429 1.81689 526.011 0.00496502 517.495 0.00789443C505.037 0.00789443 493.477 3.78782 483.901 10.3161C478.058 3.79569 464.986 0.00789443 457.481 0.00789443V150L464.986 149.63C477.538 148.803 486.61 139.975 487.098 127.517L487.5 120.005V67.5268L487.87 60.0221C488.185 54.3601 488.973 49.3832 491.532 44.9496C494.174 40.405 497.962 36.633 502.518 34.0103C507.074 31.3876 512.238 30.0059 517.495 30.0032C522.756 30.0043 527.924 31.3887 532.481 34.0176C537.038 36.6465 540.824 40.4274 543.459 44.9811ZM29.9953 149.638L37.5 150H149.992L149.622 142.519C148.606 130.187 139.873 121.178 127.502 120.375L119.997 120.005H52.5094L142.487 29.9953L142.117 22.5221C141.535 10.0641 132.431 1.06313 119.997 0.378009L112.492 0.0393932L0 0.00789443L0.370118 7.51262C1.35447 19.7265 10.2137 28.9243 22.4827 29.6331L29.9953 30.0032H97.4827L7.50472 120.013L7.87484 127.517C8.61508 139.881 17.5373 148.835 29.9953 149.63V149.638ZM428.037 21.963C435.002 28.9268 440.528 37.1946 444.297 46.2941C448.067 55.3936 450.007 65.1466 450.007 74.9961C450.007 84.8455 448.067 94.5985 444.297 103.698C440.528 112.798 435.002 121.065 428.037 128.029C413.965 142.09 394.885 149.989 374.992 149.989C355.099 149.989 336.02 142.09 321.947 128.029C292.661 98.7427 292.661 51.2495 321.947 21.963C328.906 15.0014 337.168 9.47876 346.262 5.71034C355.355 1.94193 365.102 0.00155458 374.945 1.80791e-05C384.804 -0.00682696 394.568 1.93013 403.678 5.70009C412.788 9.47005 421.066 14.999 428.037 21.9708V21.963ZM406.814 43.2014C415.25 51.6434 419.988 63.0894 419.988 75.0236C419.988 86.9579 415.25 98.4039 406.814 106.846C398.372 115.281 386.926 120.02 374.992 120.02C363.058 120.02 351.612 115.281 343.17 106.846C334.734 98.4039 329.996 86.9579 329.996 75.0236C329.996 63.0894 334.734 51.6434 343.17 43.2014C351.612 34.7658 363.058 30.0272 374.992 30.0272C386.926 30.0272 398.372 34.7658 406.814 43.2014ZM217.543 1.80791e-05C227.386 0.00258878 237.133 1.9442 246.227 5.71398C255.32 9.48376 263.582 15.0079 270.54 21.9708C299.835 51.2495 299.835 98.7505 270.54 128.029C256.468 142.09 237.388 149.989 217.495 149.989C197.602 149.989 178.523 142.09 164.45 128.029C135.164 98.7427 135.164 51.2495 164.45 21.963C171.409 15.0014 179.671 9.47876 188.765 5.71034C197.858 1.94193 207.605 0.00155458 217.448 1.80791e-05H217.543ZM249.317 43.1857C257.755 51.628 262.496 63.0756 262.496 75.0118C262.496 86.948 257.755 98.3957 249.317 106.838C240.875 115.274 229.43 120.012 217.495 120.012C205.561 120.012 194.115 115.274 185.673 106.838C177.237 98.396 172.499 86.95 172.499 75.0158C172.499 63.0815 177.237 51.6355 185.673 43.1935C194.115 34.7579 205.561 30.0194 217.495 30.0194C229.43 30.0194 240.875 34.7579 249.317 43.1935V43.1857Z" fill="#2D8CFF"/>
</g>
<defs>
<clipPath id="clip0_7_1396">
<rect width="667.487" height="150" fill="white"/>
</clipPath>
</defs>
</svg>
